Coordinates
version=1
nRows=7
nColumns=40
inDegrees=yes

Units are S.I. units (second, meters, Newtons, ...)
Angles are in degrees.

endheader
time	pelvis_tilt	pelvis_list	pelvis_rotation	pelvis_tx	pelvis_ty	pelvis_tz	hip_flexion_r	hip_adduction_r	hip_rotation_r	knee_angle_r	knee_angle_r_beta	ankle_angle_r	subtalar_angle_r	mtp_angle_r	hip_flexion_l	hip_adduction_l	hip_rotation_l	knee_angle_l	knee_angle_l_beta	ankle_angle_l	subtalar_angle_l	mtp_angle_l	lumbar_extension	lumbar_bending	lumbar_rotation	arm_flex_r	arm_add_r	arm_rot_r	elbow_flex_r	pro_sup_r	wrist_flex_r	wrist_dev_r	arm_flex_l	arm_add_l	arm_rot_l	elbow_flex_l	pro_sup_l	wrist_flex_l	wrist_dev_l
     45.38500000	     -2.06879774	     -4.46807810	      4.41121929	      1.14578510	      0.91125844	      0.55815721	     16.54208026	      5.05165105	     -7.42574743	     31.34600953	     31.34600953	     18.14087712	    -12.15987261	     -1.32996378	     33.71839894	    -13.03730945	      7.63439335	     68.57978831	     68.57978831	      9.24532259	    -19.38734121	     19.99741594	    -12.39600774	      4.33192925	      1.61582869	     28.79914702	    -16.39993973	     -5.06191680	     52.18038534	     45.55598948	      0.00000000	      0.00000000	     -0.57277496	     -7.26823192	      6.17994968	     23.41498666	     44.93148143	      0.00000000	      0.00000000
     45.40657143	     -1.83984894	     -4.42075917	      5.14460931	      1.14410396	      0.91017652	      0.55947542	     16.38504065	      5.10579835	     -7.69219390	     31.84104776	     31.84104776	     18.51610919	    -12.84411227	     -1.36304735	     35.08692968	    -12.66860124	      7.72792293	     68.02057803	     68.02057803	      9.82816845	    -19.47460218	     19.98775055	    -12.63750061	      4.32606868	      2.23450320	     31.79086307	    -17.34577436	     -5.48188476	     53.56726665	     45.54131635	      0.00000000	      0.00000000	     -2.63334429	     -6.89994186	      6.36210046	     22.63899963	     44.86077979	      0.00000000	      0.00000000
     45.42814286	     -1.82039595	     -4.34030575	      5.96356711	      1.14235891	      0.90955382	      0.56051514	     16.33191015	      5.14730728	     -7.87269679	     32.08426483	     32.08426483	     18.75022308	    -13.84655373	     -0.94841164	     36.30622981	    -12.15635914	      7.75469772	     66.46620673	     66.46620673	     10.80955950	    -19.51263565	     20.67073521	    -12.68098441	      4.25967977	      1.72395685	     34.72011850	    -16.99687762	     -5.73510533	     56.38686480	     45.46695132	      0.00000000	      0.00000000	     -5.09481690	     -6.81287541	      6.95473072	     22.02282470	     44.69515367	      0.00000000	      0.00000000
     45.44971429	     -1.86744418	     -4.22522728	      6.76618763	      1.14059244	      0.90966726	      0.56108021	     16.13538219	      5.05098230	     -8.28631478	     31.99056360	     31.99056360	     19.15114805	    -14.09988064	     -0.03341671	     37.15302605	    -11.58867045	      7.58832847	     63.96950883	     63.96950883	     11.75004573	    -19.51344431	     21.30676153	    -12.75460002	      4.20293179	      2.17216063	     36.89422631	    -17.91554639	     -6.06594297	     59.98387238	     45.37396114	      0.00000000	      0.00000000	     -7.56925962	     -7.21817523	      9.70683673	     23.68163888	     44.10697833	      0.00000000	      0.00000000
     45.47128571	     -2.03203935	     -4.09049388	      7.58774165	      1.13880284	      0.91042260	      0.56133945	     15.82027219	      4.89165439	     -8.82148644	     31.42202556	     31.42202556	     19.11699496	    -14.29179095	      0.04273212	     37.62127995	    -11.01979813	      7.23924978	     60.45690704	     60.45690704	     11.68416160	    -19.49003217	     19.86094125	    -12.65327665	      4.12930874	      2.31620219	     39.58188771	    -18.43551174	     -6.30944971	     62.19132635	     45.34347023	      0.00000000	      0.00000000	     -9.79379642	     -7.97310533	     14.69401713	     25.20186247	     43.30451622	      0.00000000	      0.00000000
     45.49285714	     -2.47946629	     -3.90559083	      8.37410087	      1.13679278	      0.91142118	      0.56118991	     15.72058743	      4.60496012	     -9.35836590	     30.69218033	     30.69218033	     18.98971798	    -14.38404874	      0.24100931	     38.02564942	    -10.21232652	      6.99391159	     56.35653437	     56.35653437	     11.78329242	    -19.40887625	     20.10670558	    -12.22841391	      3.95659956	      2.64809117	     42.36008279	    -19.24397728	     -6.64327698	     63.39102676	     45.32962772	      0.00000000	      0.00000000	    -11.07110404	     -7.84055475	     14.83053648	     24.87812128	     43.26716778	      0.00000000	      0.00000000
     45.51442857	     -2.73226612	     -3.66015154	      9.14444506	      1.13502336	      0.91327036	      0.56079072	     15.14481978	      4.21337143	    -10.18945547	     29.56395808	     29.56395808	     18.75390320	    -13.83261876	     -0.07136347	     37.65572071	     -9.46319684	      6.61336075	     51.41880778	     51.41880778	     10.22985690	    -19.28221209	     16.99513840	    -12.18142436	      3.77300094	      2.23100859	     44.90184128	    -19.23702234	     -6.47386202	     66.34562468	     45.24398977	      0.00000000	      0.00000000	    -13.07737767	     -8.09248597	     15.82057429	     26.42320919	     43.12256884	      0.00000000	      0.00000000
